<svg xmlns="http://www.w3.org/2000/svg" width="900" height="854" viewBox="0 0 900 854" role="img" aria-label="Tiempo total por benchmark (mediana)"><title>Tiempo total por benchmark (mediana)</title>
<style>
  svg { --surface:#fcfcfb; --ink:#0b0b0b; --ink2:#52514e; --muted:#8a8984; --grid:#e6e5e1;
        --glox:#2a78d6; --bytecode:#eb6834; --other:#86857f; }
  @media (prefers-color-scheme: dark) {
    svg { --surface:#1a1a19; --ink:#ffffff; --ink2:#c3c2b7; --muted:#8f8e86; --grid:#383835;
          --glox:#3987e5; --bytecode:#d95926; --other:#7d7c76; }
  }
  text { font-family: -apple-system, BlinkMacSystemFont, "Segoe UI", Helvetica, Arial, sans-serif; fill: var(--ink2); font-size: 12px; }
  .title { fill: var(--ink); font-size: 15px; font-weight: 600; }
  .subtitle { fill: var(--ink2); font-size: 12px; }
  .panel { fill: var(--ink); font-size: 13px; font-weight: 600; }
  .label { fill: var(--ink); }
  .label.glox { font-weight: 700; }
  .value { fill: var(--ink2); font-size: 11px; }
  .tick { fill: var(--muted); font-size: 11px; }
  .grid { stroke: var(--grid); stroke-width: 1; }
  .stem { stroke: var(--grid); stroke-width: 2; }
  .glox { fill: var(--glox); stroke: var(--glox); }
  .bytecode { fill: var(--bytecode); stroke: var(--bytecode); }
  .other { fill: var(--other); stroke: var(--other); }
  .line { fill: none; stroke-width: 2; }
  .line.glox { stroke-width: 3; }
  .ring { stroke: var(--surface); stroke-width: 2; }
  .bg { fill: var(--surface); }
</style>
<rect class="bg" width="900" height="854" rx="8"/><text class="title" x="24" y="30">Tiempo total por benchmark (mediana)</text><text class="subtitle" x="24" y="50">De la más rápida a la más lenta en promedio. Escala logarítmica compartida. Rombo naranja = compilan a bytecode.</text><text class="panel" x="24" y="86">fib(28)</text><line class="grid" x1="102.0" y1="96" x2="102.0" y2="298"/><text class="tick" x="102.0" y="313" text-anchor="middle">1 ms</text><line class="grid" x1="156.0" y1="96" x2="156.0" y2="298"/><text class="tick" x="156.0" y="313" text-anchor="middle">10 ms</text><line class="grid" x1="210.0" y1="96" x2="210.0" y2="298"/><text class="tick" x="210.0" y="313" text-anchor="middle">100 ms</text><line class="grid" x1="264.0" y1="96" x2="264.0" y2="298"/><text class="tick" x="264.0" y="313" text-anchor="middle">1 s</text><line class="grid" x1="318.0" y1="96" x2="318.0" y2="298"/><text class="tick" x="318.0" y="313" text-anchor="middle">10 s</text><line class="grid" x1="372.0" y1="96" x2="372.0" y2="298"/><text class="tick" x="372.0" y="313" text-anchor="middle">100 s</text><text class="label" x="92" y="115.0" text-anchor="end">rlox</text><line class="stem" x1="102" y1="111.0" x2="172.1" y2="111.0"/><path class="bytecode ring" d="M172.1,104.5 L178.6,111.0 L172.1,117.5 L165.6,111.0 Z"/><text class="value" x="182.1" y="115.0">20 ms</text><text class="label" x="92" y="137.0" text-anchor="end">loxx</text><line class="stem" x1="102" y1="133.0" x2="175.3" y2="133.0"/><path class="bytecode ring" d="M175.3,126.5 L181.8,133.0 L175.3,139.5 L168.8,133.0 Z"/><text class="value" x="185.3" y="137.0">23 ms</text><text class="label" x="92" y="159.0" text-anchor="end">jlox</text><line class="stem" x1="102" y1="155.0" x2="208.9" y2="155.0"/><circle class="other ring" cx="208.9" cy="155.0" r="5"/><text class="value" x="218.9" y="159.0">95 ms</text><text class="label glox" x="92" y="181.0" text-anchor="end">glox</text><line class="stem" x1="102" y1="177.0" x2="219.0" y2="177.0"/><circle class="glox ring" cx="219.0" cy="177.0" r="5"/><text class="value" x="229.0" y="181.0">147 ms</text><text class="label" x="92" y="203.0" text-anchor="end">slox</text><line class="stem" x1="102" y1="199.0" x2="257.6" y2="199.0"/><circle class="other ring" cx="257.6" cy="199.0" r="5"/><text class="value" x="267.6" y="203.0">762 ms</text><text class="label" x="92" y="225.0" text-anchor="end">dlox</text><line class="stem" x1="102" y1="221.0" x2="317.4" y2="221.0"/><circle class="other ring" cx="317.4" cy="221.0" r="5"/><text class="value" x="327.4" y="225.0">9.73 s</text><text class="label" x="92" y="247.0" text-anchor="end">plox-php</text><line class="stem" x1="102" y1="243.0" x2="319.8" y2="243.0"/><circle class="other ring" cx="319.8" cy="243.0" r="5"/><text class="value" x="329.8" y="247.0">10.8 s</text><text class="label" x="92" y="269.0" text-anchor="end">cloxure</text><line class="stem" x1="102" y1="265.0" x2="355.2" y2="265.0"/><circle class="other ring" cx="355.2" cy="265.0" r="5"/><text class="value" x="365.2" y="269.0">48.9 s</text><text class="label" x="92" y="291.0" text-anchor="end">plox</text><line class="stem" x1="102" y1="287.0" x2="314.3" y2="287.0"/><circle class="other ring" cx="314.3" cy="287.0" r="5"/><text class="value" x="324.3" y="291.0">8.56 s</text><text class="panel" x="462" y="86">for 2M</text><line class="grid" x1="540.0" y1="96" x2="540.0" y2="298"/><text class="tick" x="540.0" y="313" text-anchor="middle">1 ms</text><line class="grid" x1="594.0" y1="96" x2="594.0" y2="298"/><text class="tick" x="594.0" y="313" text-anchor="middle">10 ms</text><line class="grid" x1="648.0" y1="96" x2="648.0" y2="298"/><text class="tick" x="648.0" y="313" text-anchor="middle">100 ms</text><line class="grid" x1="702.0" y1="96" x2="702.0" y2="298"/><text class="tick" x="702.0" y="313" text-anchor="middle">1 s</text><line class="grid" x1="756.0" y1="96" x2="756.0" y2="298"/><text class="tick" x="756.0" y="313" text-anchor="middle">10 s</text><line class="grid" x1="810.0" y1="96" x2="810.0" y2="298"/><text class="tick" x="810.0" y="313" text-anchor="middle">100 s</text><text class="label" x="530" y="115.0" text-anchor="end">rlox</text><line class="stem" x1="540" y1="111.0" x2="620.2" y2="111.0"/><path class="bytecode ring" d="M620.2,104.5 L626.7,111.0 L620.2,117.5 L613.7,111.0 Z"/><text class="value" x="630.2" y="115.0">31 ms</text><text class="label" x="530" y="137.0" text-anchor="end">loxx</text><line class="stem" x1="540" y1="133.0" x2="620.1" y2="133.0"/><path class="bytecode ring" d="M620.1,126.5 L626.6,133.0 L620.1,139.5 L613.6,133.0 Z"/><text class="value" x="630.1" y="137.0">30 ms</text><text class="label" x="530" y="159.0" text-anchor="end">jlox</text><line class="stem" x1="540" y1="155.0" x2="658.9" y2="155.0"/><circle class="other ring" cx="658.9" cy="155.0" r="5"/><text class="value" x="668.9" y="159.0">159 ms</text><text class="label glox" x="530" y="181.0" text-anchor="end">glox</text><line class="stem" x1="540" y1="177.0" x2="671.5" y2="177.0"/><circle class="glox ring" cx="671.5" cy="177.0" r="5"/><text class="value" x="681.5" y="181.0">273 ms</text><text class="label" x="530" y="203.0" text-anchor="end">slox</text><line class="stem" x1="540" y1="199.0" x2="708.2" y2="199.0"/><circle class="other ring" cx="708.2" cy="199.0" r="5"/><text class="value" x="718.2" y="203.0">1.30 s</text><text class="label" x="530" y="225.0" text-anchor="end">dlox</text><line class="stem" x1="540" y1="221.0" x2="674.1" y2="221.0"/><circle class="other ring" cx="674.1" cy="221.0" r="5"/><text class="value" x="684.1" y="225.0">304 ms</text><text class="label" x="530" y="247.0" text-anchor="end">plox-php</text><line class="stem" x1="540" y1="243.0" x2="730.4" y2="243.0"/><circle class="other ring" cx="730.4" cy="243.0" r="5"/><text class="value" x="740.4" y="247.0">3.36 s</text><text class="label" x="530" y="269.0" text-anchor="end">cloxure</text><line class="stem" x1="540" y1="265.0" x2="717.7" y2="265.0"/><circle class="other ring" cx="717.7" cy="265.0" r="5"/><text class="value" x="727.7" y="269.0">1.96 s</text><text class="label" x="530" y="291.0" text-anchor="end">plox</text><line class="stem" x1="540" y1="287.0" x2="772.9" y2="287.0"/><circle class="other ring" cx="772.9" cy="287.0" r="5"/><text class="value" x="782.9" y="291.0">20.5 s</text><text class="panel" x="24" y="344">1M llamadas</text><line class="grid" x1="102.0" y1="354" x2="102.0" y2="556"/><text class="tick" x="102.0" y="571" text-anchor="middle">1 ms</text><line class="grid" x1="156.0" y1="354" x2="156.0" y2="556"/><text class="tick" x="156.0" y="571" text-anchor="middle">10 ms</text><line class="grid" x1="210.0" y1="354" x2="210.0" y2="556"/><text class="tick" x="210.0" y="571" text-anchor="middle">100 ms</text><line class="grid" x1="264.0" y1="354" x2="264.0" y2="556"/><text class="tick" x="264.0" y="571" text-anchor="middle">1 s</text><line class="grid" x1="318.0" y1="354" x2="318.0" y2="556"/><text class="tick" x="318.0" y="571" text-anchor="middle">10 s</text><line class="grid" x1="372.0" y1="354" x2="372.0" y2="556"/><text class="tick" x="372.0" y="571" text-anchor="middle">100 s</text><text class="label" x="92" y="373.0" text-anchor="end">rlox</text><line class="stem" x1="102" y1="369.0" x2="189.1" y2="369.0"/><path class="bytecode ring" d="M189.1,362.5 L195.6,369.0 L189.1,375.5 L182.6,369.0 Z"/><text class="value" x="199.1" y="373.0">41 ms</text><text class="label" x="92" y="395.0" text-anchor="end">loxx</text><line class="stem" x1="102" y1="391.0" x2="192.6" y2="391.0"/><path class="bytecode ring" d="M192.6,384.5 L199.1,391.0 L192.6,397.5 L186.1,391.0 Z"/><text class="value" x="202.6" y="395.0">48 ms</text><text class="label" x="92" y="417.0" text-anchor="end">jlox</text><line class="stem" x1="102" y1="413.0" x2="241.4" y2="413.0"/><circle class="other ring" cx="241.4" cy="413.0" r="5"/><text class="value" x="251.4" y="417.0">382 ms</text><text class="label glox" x="92" y="439.0" text-anchor="end">glox</text><line class="stem" x1="102" y1="435.0" x2="243.5" y2="435.0"/><circle class="glox ring" cx="243.5" cy="435.0" r="5"/><text class="value" x="253.5" y="439.0">416 ms</text><text class="label" x="92" y="461.0" text-anchor="end">slox</text><line class="stem" x1="102" y1="457.0" x2="285.4" y2="457.0"/><circle class="other ring" cx="285.4" cy="457.0" r="5"/><text class="value" x="295.4" y="461.0">2.49 s</text><text class="label" x="92" y="483.0" text-anchor="end">dlox</text><line class="stem" x1="102" y1="479.0" x2="300.7" y2="479.0"/><circle class="other ring" cx="300.7" cy="479.0" r="5"/><text class="value" x="310.7" y="483.0">4.78 s</text><text class="label" x="92" y="505.0" text-anchor="end">plox-php</text><line class="stem" x1="102" y1="501.0" x2="311.7" y2="501.0"/><circle class="other ring" cx="311.7" cy="501.0" r="5"/><text class="value" x="321.7" y="505.0">7.66 s</text><text class="label" x="92" y="527.0" text-anchor="end">cloxure</text><line class="stem" x1="102" y1="523.0" x2="339.0" y2="523.0"/><circle class="other ring" cx="339.0" cy="523.0" r="5"/><text class="value" x="349.0" y="527.0">24.5 s</text><text class="label" x="92" y="549.0" text-anchor="end">plox</text><line class="stem" x1="102" y1="545.0" x2="337.4" y2="545.0"/><circle class="other ring" cx="337.4" cy="545.0" r="5"/><text class="value" x="347.4" y="549.0">22.9 s</text><text class="panel" x="462" y="344">closure con estado 1M</text><line class="grid" x1="540.0" y1="354" x2="540.0" y2="556"/><text class="tick" x="540.0" y="571" text-anchor="middle">1 ms</text><line class="grid" x1="594.0" y1="354" x2="594.0" y2="556"/><text class="tick" x="594.0" y="571" text-anchor="middle">10 ms</text><line class="grid" x1="648.0" y1="354" x2="648.0" y2="556"/><text class="tick" x="648.0" y="571" text-anchor="middle">100 ms</text><line class="grid" x1="702.0" y1="354" x2="702.0" y2="556"/><text class="tick" x="702.0" y="571" text-anchor="middle">1 s</text><line class="grid" x1="756.0" y1="354" x2="756.0" y2="556"/><text class="tick" x="756.0" y="571" text-anchor="middle">10 s</text><line class="grid" x1="810.0" y1="354" x2="810.0" y2="556"/><text class="tick" x="810.0" y="571" text-anchor="middle">100 s</text><text class="label" x="530" y="373.0" text-anchor="end">rlox</text><line class="stem" x1="540" y1="369.0" x2="615.6" y2="369.0"/><path class="bytecode ring" d="M615.6,362.5 L622.1,369.0 L615.6,375.5 L609.1,369.0 Z"/><text class="value" x="625.6" y="373.0">25 ms</text><text class="label" x="530" y="395.0" text-anchor="end">loxx</text><line class="stem" x1="540" y1="391.0" x2="616.4" y2="391.0"/><path class="bytecode ring" d="M616.4,384.5 L622.9,391.0 L616.4,397.5 L609.9,391.0 Z"/><text class="value" x="626.4" y="395.0">26 ms</text><text class="label" x="530" y="417.0" text-anchor="end">jlox</text><line class="stem" x1="540" y1="413.0" x2="666.7" y2="413.0"/><circle class="other ring" cx="666.7" cy="413.0" r="5"/><text class="value" x="676.7" y="417.0">222 ms</text><text class="label glox" x="530" y="439.0" text-anchor="end">glox</text><line class="stem" x1="540" y1="435.0" x2="663.6" y2="435.0"/><circle class="glox ring" cx="663.6" cy="435.0" r="5"/><text class="value" x="673.6" y="439.0">194 ms</text><text class="label" x="530" y="461.0" text-anchor="end">slox</text><line class="stem" x1="540" y1="457.0" x2="704.6" y2="457.0"/><circle class="other ring" cx="704.6" cy="457.0" r="5"/><text class="value" x="714.6" y="461.0">1.12 s</text><text class="label" x="530" y="483.0" text-anchor="end">dlox</text><line class="stem" x1="540" y1="479.0" x2="720.6" y2="479.0"/><circle class="other ring" cx="720.6" cy="479.0" r="5"/><text class="value" x="730.6" y="483.0">2.21 s</text><text class="label" x="530" y="505.0" text-anchor="end">plox-php</text><line class="stem" x1="540" y1="501.0" x2="734.8" y2="501.0"/><circle class="other ring" cx="734.8" cy="501.0" r="5"/><text class="value" x="744.8" y="505.0">4.05 s</text><text class="label" x="530" y="527.0" text-anchor="end">cloxure</text><line class="stem" x1="540" y1="523.0" x2="759.2" y2="523.0"/><circle class="other ring" cx="759.2" cy="523.0" r="5"/><text class="value" x="769.2" y="527.0">11.4 s</text><text class="label" x="530" y="549.0" text-anchor="end">plox</text><line class="stem" x1="540" y1="545.0" x2="765.4" y2="545.0"/><circle class="other ring" cx="765.4" cy="545.0" r="5"/><text class="value" x="775.4" y="549.0">15.0 s</text><text class="panel" x="24" y="602">1M concatenaciones</text><line class="grid" x1="102.0" y1="612" x2="102.0" y2="814"/><text class="tick" x="102.0" y="829" text-anchor="middle">1 ms</text><line class="grid" x1="156.0" y1="612" x2="156.0" y2="814"/><text class="tick" x="156.0" y="829" text-anchor="middle">10 ms</text><line class="grid" x1="210.0" y1="612" x2="210.0" y2="814"/><text class="tick" x="210.0" y="829" text-anchor="middle">100 ms</text><line class="grid" x1="264.0" y1="612" x2="264.0" y2="814"/><text class="tick" x="264.0" y="829" text-anchor="middle">1 s</text><line class="grid" x1="318.0" y1="612" x2="318.0" y2="814"/><text class="tick" x="318.0" y="829" text-anchor="middle">10 s</text><line class="grid" x1="372.0" y1="612" x2="372.0" y2="814"/><text class="tick" x="372.0" y="829" text-anchor="middle">100 s</text><text class="label" x="92" y="631.0" text-anchor="end">rlox</text><text class="value" x="102" y="631.0">sin dato</text><text class="label" x="92" y="653.0" text-anchor="end">loxx</text><line class="stem" x1="102" y1="649.0" x2="193.3" y2="649.0"/><path class="bytecode ring" d="M193.3,642.5 L199.8,649.0 L193.3,655.5 L186.8,649.0 Z"/><text class="value" x="203.3" y="653.0">49 ms</text><text class="label" x="92" y="675.0" text-anchor="end">jlox</text><line class="stem" x1="102" y1="671.0" x2="215.5" y2="671.0"/><circle class="other ring" cx="215.5" cy="671.0" r="5"/><text class="value" x="225.5" y="675.0">127 ms</text><text class="label glox" x="92" y="697.0" text-anchor="end">glox</text><line class="stem" x1="102" y1="693.0" x2="224.4" y2="693.0"/><circle class="glox ring" cx="224.4" cy="693.0" r="5"/><text class="value" x="234.4" y="697.0">185 ms</text><text class="label" x="92" y="719.0" text-anchor="end">slox</text><line class="stem" x1="102" y1="715.0" x2="264.4" y2="715.0"/><circle class="other ring" cx="264.4" cy="715.0" r="5"/><text class="value" x="274.4" y="719.0">1.02 s</text><text class="label" x="92" y="741.0" text-anchor="end">dlox</text><line class="stem" x1="102" y1="737.0" x2="230.2" y2="737.0"/><circle class="other ring" cx="230.2" cy="737.0" r="5"/><text class="value" x="240.2" y="741.0">237 ms</text><text class="label" x="92" y="763.0" text-anchor="end">plox-php</text><line class="stem" x1="102" y1="759.0" x2="283.7" y2="759.0"/><circle class="other ring" cx="283.7" cy="759.0" r="5"/><text class="value" x="293.7" y="763.0">2.31 s</text><text class="label" x="92" y="785.0" text-anchor="end">cloxure</text><line class="stem" x1="102" y1="781.0" x2="269.8" y2="781.0"/><circle class="other ring" cx="269.8" cy="781.0" r="5"/><text class="value" x="279.8" y="785.0">1.28 s</text><text class="label" x="92" y="807.0" text-anchor="end">plox</text><line class="stem" x1="102" y1="803.0" x2="326.4" y2="803.0"/><circle class="other ring" cx="326.4" cy="803.0" r="5"/><text class="value" x="336.4" y="807.0">14.3 s</text><text class="panel" x="462" y="602">fib(25)</text><line class="grid" x1="540.0" y1="612" x2="540.0" y2="814"/><text class="tick" x="540.0" y="829" text-anchor="middle">1 ms</text><line class="grid" x1="594.0" y1="612" x2="594.0" y2="814"/><text class="tick" x="594.0" y="829" text-anchor="middle">10 ms</text><line class="grid" x1="648.0" y1="612" x2="648.0" y2="814"/><text class="tick" x="648.0" y="829" text-anchor="middle">100 ms</text><line class="grid" x1="702.0" y1="612" x2="702.0" y2="814"/><text class="tick" x="702.0" y="829" text-anchor="middle">1 s</text><line class="grid" x1="756.0" y1="612" x2="756.0" y2="814"/><text class="tick" x="756.0" y="829" text-anchor="middle">10 s</text><line class="grid" x1="810.0" y1="612" x2="810.0" y2="814"/><text class="tick" x="810.0" y="829" text-anchor="middle">100 s</text><text class="label" x="530" y="631.0" text-anchor="end">rlox</text><line class="stem" x1="540" y1="627.0" x2="588.7" y2="627.0"/><path class="bytecode ring" d="M588.7,620.5 L595.2,627.0 L588.7,633.5 L582.2,627.0 Z"/><text class="value" x="598.7" y="631.0">8.0 ms</text><text class="label" x="530" y="653.0" text-anchor="end">loxx</text><line class="stem" x1="540" y1="649.0" x2="584.3" y2="649.0"/><path class="bytecode ring" d="M584.3,642.5 L590.8,649.0 L584.3,655.5 L577.8,649.0 Z"/><text class="value" x="594.3" y="653.0">6.6 ms</text><text class="label" x="530" y="675.0" text-anchor="end">jlox</text><line class="stem" x1="540" y1="671.0" x2="634.6" y2="671.0"/><circle class="other ring" cx="634.6" cy="671.0" r="5"/><text class="value" x="644.6" y="675.0">56 ms</text><text class="label glox" x="530" y="697.0" text-anchor="end">glox</text><line class="stem" x1="540" y1="693.0" x2="624.2" y2="693.0"/><circle class="glox ring" cx="624.2" cy="693.0" r="5"/><text class="value" x="634.2" y="697.0">36 ms</text><text class="label" x="530" y="719.0" text-anchor="end">slox</text><line class="stem" x1="540" y1="715.0" x2="661.8" y2="715.0"/><circle class="other ring" cx="661.8" cy="715.0" r="5"/><text class="value" x="671.8" y="719.0">180 ms</text><text class="label" x="530" y="741.0" text-anchor="end">dlox</text><line class="stem" x1="540" y1="737.0" x2="718.7" y2="737.0"/><circle class="other ring" cx="718.7" cy="737.0" r="5"/><text class="value" x="728.7" y="741.0">2.04 s</text><text class="label" x="530" y="763.0" text-anchor="end">plox-php</text><line class="stem" x1="540" y1="759.0" x2="722.0" y2="759.0"/><circle class="other ring" cx="722.0" cy="759.0" r="5"/><text class="value" x="732.0" y="763.0">2.34 s</text><text class="label" x="530" y="785.0" text-anchor="end">cloxure</text><line class="stem" x1="540" y1="781.0" x2="757.3" y2="781.0"/><circle class="other ring" cx="757.3" cy="781.0" r="5"/><text class="value" x="767.3" y="785.0">10.6 s</text><text class="label" x="530" y="807.0" text-anchor="end">plox</text><line class="stem" x1="540" y1="803.0" x2="719.0" y2="803.0"/><circle class="other ring" cx="719.0" cy="803.0" r="5"/><text class="value" x="729.0" y="807.0">2.06 s</text></svg>
